<?xml version="1.0" encoding="iso-8859-1"?>
<!-- Uploaded to: SVG Repo, www.svgrepo.com, Generator: SVG Repo Mixer Tools -->
<svg fill="#000000" height="800px" width="800px" version="1.1" id="Layer_1" xmlns="http://www.w3.org/2000/svg" xmlns:xlink="http://www.w3.org/1999/xlink" 
	 viewBox="0 0 511.999 511.999" xml:space="preserve">
<g>
	<g>
		<path d="M209.533,273.763c-4.328,0-7.837,3.509-7.837,7.837v10.35c0,4.328,3.509,7.837,7.837,7.837
			c4.328,0,7.837-3.509,7.837-7.837V281.6C217.37,277.272,213.861,273.763,209.533,273.763z"/>
	</g>
</g>
<g>
	<g>
		<path d="M302.465,273.763c-4.328,0-7.837,3.509-7.837,7.837v10.35c0,4.328,3.509,7.837,7.837,7.837
			c4.328,0,7.837-3.509,7.837-7.837V281.6C310.301,277.272,306.792,273.763,302.465,273.763z"/>
	</g>
</g>
<g>
	<g>
		<path d="M279.536,316.623c-3.06-3.062-8.023-3.061-11.083,0c-3.327,3.327-7.75,5.159-12.454,5.159
			c-4.704,0-9.127-1.832-12.454-5.159c-3.06-3.061-8.023-3.061-11.082,0c-3.061,3.06-3.061,8.023,0,11.082
			c6.286,6.288,14.645,9.75,23.536,9.75c8.891,0,17.251-3.463,23.537-9.75C282.597,324.645,282.597,319.682,279.536,316.623z"/>
	</g>
</g>
<g>
	<g>
		<path d="M255.999,424.229c-11.523,0-20.898,9.375-20.898,20.898s9.375,20.898,20.898,20.898c11.523,0,20.898-9.375,20.898-20.898
			S267.522,424.229,255.999,424.229z M255.999,450.351c-2.881,0-5.224-2.344-5.224-5.224s2.344-5.224,5.224-5.224
			c2.881,0,5.224,2.344,5.224,5.224S258.88,450.351,255.999,450.351z"/>
	</g>
</g>
<g>
	<g>
		<path d="M441.638,473.861c-4.328,0-7.837,3.509-7.837,7.837V492.6c0,2.054-1.69,3.726-3.766,3.726H300.407v-57.712
			c3.073,0.834,6.033,1.287,8.796,1.287c5.77,0,10.687-1.861,14.223-5.383c3.541-3.53,5.414-8.444,5.414-14.212
			c0-5.758-1.928-12.362-5.396-19.112c7.638-0.401,14.574-3.475,19.897-8.292h31.003c32.785,0,59.458,26.57,59.458,59.228
			c0,4.328,3.509,7.837,7.837,7.837c4.328,0,7.837-3.509,7.837-7.837c0-41.301-33.703-74.901-75.131-74.901h-21.456
			c0.678-2.591,1.046-5.307,1.046-8.107c0-9.483-4.155-18.006-10.73-23.888c12.215-11.802,21.064-25.317,26.136-39.718
			c16.002-5.932,27.434-21.309,27.434-39.306c0-16.063-9.107-30.037-22.441-37.074v-99.418
			c19.961-7.583,33.433-26.714,33.433-48.469c0-28.609-23.343-51.884-52.036-51.884c-4.248,0-8.42,0.503-12.476,1.502
			C335.037,12.35,316.496,0,295.664,0c-15.199,0-29.346,6.55-39.099,17.641C246.813,6.55,232.666,0,217.467,0
			c-21.002,0-39.566,12.447-47.708,31.132c-4.375-1.174-8.886-1.766-13.49-1.766c-28.693,0-52.036,23.275-52.036,51.884
			c0,21.755,13.472,40.886,33.433,48.469v15.524c0,4.328,3.509,7.837,7.837,7.837c4.328,0,7.837-3.509,7.837-7.837v-13.43h18.021
			c4.328,0,7.837-3.509,7.837-7.837c0-4.328-3.509-7.837-7.837-7.837h-24.818c-15.726-4.329-26.635-18.545-26.635-34.889
			c0-19.967,16.312-36.211,36.362-36.211c3.233,0,6.401,0.42,9.471,1.248c-0.2,1.853-0.308,3.72-0.308,5.597
			c0,4.328,3.509,7.837,7.837,7.837c4.328,0,7.837-3.509,7.837-7.837c0-3.074,0.4-6.104,1.159-9.044h-0.006
			c4.129-16.007,18.57-27.167,35.209-27.167c13.522,0,25.851,7.411,32.173,19.342c1.359,2.564,4.023,4.167,6.925,4.167
			c2.902,0,5.565-1.603,6.923-4.167c6.325-11.931,18.654-19.342,32.176-19.342c16.538,0,31.003,11.114,35.18,27.025
			c0.013,0.048,0.038,0.142,0.038,0.142c0.758,2.934,1.145,5.959,1.145,9.044c0,4.328,3.509,7.837,7.837,7.837
			c4.328,0,7.837-3.509,7.837-7.837c0-1.976-0.122-3.933-0.342-5.873c2.723-0.639,5.52-0.973,8.371-0.973
			c20.049,0,36.362,16.244,36.362,36.211c0,16.344-10.91,30.56-26.635,34.889h-42.584c-4.328,0-7.837,3.509-7.837,7.837
			c0,4.328,3.509,7.837,7.837,7.837h35.787v44.776h-50.938v-17.016c0-4.328-3.509-7.837-7.837-7.837
			c-4.328,0-7.837,3.509-7.837,7.837v17.016h-28.212v-17.016c0-4.328-3.509-7.837-7.837-7.837c-4.328,0-7.837,3.509-7.837,7.837
			v17.016h-28.211v-17.016c0-4.328-3.509-7.837-7.837-7.837c-4.328,0-7.837,3.509-7.837,7.837v17.016H153.34v-3.135
			c0-4.328-3.509-7.837-7.837-7.837s-7.837,3.509-7.837,7.837v38.661v0.603v16.417c-13.333,7.037-22.441,21.012-22.441,37.074
			c0,17.998,11.432,33.374,27.434,39.306c5.072,14.401,13.921,27.914,26.136,39.718c-6.576,5.883-10.73,14.405-10.73,23.888
			c0,2.8,0.368,5.516,1.046,8.107h-21.456c-41.427,0-75.131,33.601-75.131,74.901v40.47c0,10.697,8.721,19.4,19.439,19.4h348.072
			c10.719,0,19.439-8.703,19.439-19.4v-10.901C449.474,477.37,445.966,473.861,441.638,473.861z M374.333,276.641v-27.947
			c4.198,4.651,6.768,10.784,6.768,17.516c0,6.905-2.702,13.185-7.095,17.875C374.221,281.616,374.333,279.133,374.333,276.641z
			 M130.899,266.21c0-6.73,2.568-12.865,6.768-17.516v27.947c0,2.492,0.112,4.975,0.327,7.444
			C133.6,279.394,130.899,273.114,130.899,266.21z M312.362,423.416c-0.518,0.517-1.67,0.813-3.159,0.813
			c-6.309,0-17.733-5.042-29.035-16.304c-6.795-6.772-11.315-13.575-13.852-19.294l15.631,15.576
			c1.529,1.523,3.53,2.286,5.532,2.286c2.009,0,4.02-0.769,5.552-2.305c3.055-3.066,3.046-8.028-0.02-11.082l-14.541-14.491
			c0.271-0.049,0.541-0.093,0.812-0.145c5.338,2.638,11.448,6.875,17.534,12.941c11.294,11.256,16.349,22.623,16.349,28.897
			C313.165,421.774,312.873,422.907,312.362,423.416z M321.73,385.567h-8.966c-1.539-1.787-3.165-3.545-4.885-5.259
			c-2.739-2.729-5.589-5.229-8.49-7.486c11.196-4.186,21.927-10.006,31.667-17.268c4.346,2.966,7.205,7.939,7.205,13.566
			C338.26,378.19,330.844,385.567,321.73,385.567z M358.659,243.461h-2.67c-20.167,0-38.755-6.78-53.647-18.146
			c1.418-1.545,2.789-3.133,4.113-4.762h52.204V243.461z M153.339,192.261h205.319v12.619H153.339V192.261z M153.34,220.554h131.557
			c-15.712,14.219-36.549,22.907-59.399,22.907h-28.332c-15.454,0-30.517-3.983-43.825-11.557V220.554z M153.339,276.641v-27.133
			c13.66,6.322,28.581,9.627,43.825,9.627h28.332c24.685,0,47.386-8.61,65.254-22.968c17.867,14.355,40.558,22.968,65.239,22.968
			h2.67v17.506c0,22.685-11.154,44.675-31.408,61.916c-19.595,16.681-44.738,26.249-68.985,26.249h-4.534
			c-24.247,0-49.39-9.567-68.985-26.249C164.493,321.316,153.339,299.326,153.339,276.641z M173.738,369.122
			c0-5.628,2.859-10.601,7.205-13.566c9.738,7.262,20.47,13.082,31.666,17.268c-2.901,2.257-5.751,4.755-8.49,7.486
			c-1.72,1.714-3.346,3.473-4.885,5.259h-8.966v-0.001C181.153,385.567,173.738,378.19,173.738,369.122z M215.182,391.41
			c6.086-6.067,12.195-10.303,17.533-12.941c0.271,0.051,0.541,0.096,0.813,0.145l-14.541,14.491
			c-3.066,3.055-3.074,8.017-0.02,11.082c1.531,1.537,3.541,2.305,5.552,2.305c2.001,0,4.003-0.762,5.532-2.286l15.631-15.577
			c-2.536,5.719-7.057,12.523-13.852,19.294c-11.302,11.264-22.725,16.306-29.035,16.306c-1.489,0-2.64-0.296-3.159-0.812
			c-0.511-0.509-0.805-1.643-0.805-3.11C198.833,414.034,203.888,402.665,215.182,391.41z M250.774,496.327
			c0-2.881,2.344-5.224,5.224-5.224c2.881,0,5.224,2.344,5.224,5.224H250.774z M284.735,496.327h-0.001h-7.837
			c0-11.523-9.375-20.898-20.898-20.898c-11.523,0-20.898,9.375-20.898,20.898H81.963c-2.076,0-3.766-1.672-3.766-3.726v-40.47
			c0-32.658,26.672-59.228,59.458-59.228h31.003c5.324,4.816,12.259,7.89,19.896,8.292c-3.467,6.75-5.395,13.354-5.395,19.112
			c0,5.768,1.872,10.682,5.415,14.212c3.535,3.522,8.452,5.383,14.222,5.383c11.813,0,27.178-7.999,40.099-20.876
			c5.253-5.235,9.679-10.874,13.105-16.515c3.425,5.64,7.852,11.28,13.105,16.515c4.963,4.945,10.286,9.163,15.63,12.493V496.327z"
			/>
	</g>
</g>
</svg>