<?xml version="1.0" encoding="iso-8859-1"?>
<!-- Uploaded to: SVG Repo, www.svgrepo.com, Generator: SVG Repo Mixer Tools -->
<svg fill="#000000" height="800px" width="800px" version="1.1" id="Layer_1" xmlns="http://www.w3.org/2000/svg" xmlns:xlink="http://www.w3.org/1999/xlink" 
	 viewBox="0 0 512 512" xml:space="preserve">
<g>
	<g>
		<g>
			<path d="M68.318,460.755c0-4.71-3.823-8.533-8.533-8.533c-5.137,0-12.297,2.347-15.573,8.951
				c-5.649,11.383,5.214,25.66,8.781,30.353c1.673,2.21,4.224,3.362,6.801,3.362c1.801,0,3.61-0.563,5.154-1.741
				c3.755-2.85,4.48-8.201,1.63-11.955c-5.018-6.596-6.391-10.266-6.776-11.895c0.051,0,0.085-0.009,0.128-0.009
				C64.572,469.212,68.318,465.423,68.318,460.755z"/>
			<path d="M127.582,470.842c-11.375-5.649-25.651,5.205-30.353,8.772c-3.746,2.85-4.471,8.209-1.621,11.964
				c1.673,2.202,4.224,3.362,6.801,3.362c1.801,0,3.618-0.563,5.154-1.741c6.596-5.009,10.266-6.391,11.895-6.767
				c0,0.043,0.009,0.085,0.009,0.128c0.085,4.642,3.866,8.38,8.533,8.38c4.719,0,8.533-3.823,8.533-8.533
				C136.533,481.278,134.187,474.118,127.582,470.842z"/>
			<path d="M2.475,463.281C0.93,464.902,0,467.121,0,469.34c0,2.219,0.93,4.437,2.475,6.059c1.613,1.536,3.84,2.475,6.059,2.475
				s4.429-0.939,6.059-2.475c1.527-1.621,2.475-3.84,2.475-6.059c0-2.219-0.947-4.437-2.475-6.059
				C11.435,460.124,5.632,460.124,2.475,463.281z"/>
			<path d="M440.516,147.368c1.058,3.763,4.48,6.212,8.201,6.212c0.776,0,1.553-0.102,2.33-0.324
				c4.54-1.289,7.168-5.999,5.888-10.539c-9.609-33.937-36.668-60.988-70.613-70.596c-4.506-1.271-9.25,1.348-10.53,5.888
				s1.348,9.259,5.879,10.539C409.958,96.552,432.503,119.089,440.516,147.368z"/>
			<path d="M156.075,480.348c-1.544,1.621-2.475,3.755-2.475,6.059c0,2.219,0.93,4.437,2.475,6.059
				c1.613,1.536,3.84,2.475,6.059,2.475c2.219,0,4.429-0.939,6.059-2.475c1.527-1.621,2.475-3.84,2.475-6.059
				c0-2.304-0.947-4.437-2.475-6.059C165.035,477.19,159.232,477.19,156.075,480.348z"/>
			<path d="M358.4,17.073c-60.22,0-115.174,35.465-140.006,90.351c-1.946,4.292-0.034,9.353,4.258,11.29
				c4.292,1.937,9.344,0.034,11.29-4.258C256.017,65.67,304.862,34.14,358.4,34.14c75.281,0,136.533,61.252,136.533,136.533
				c0,83.601-73.916,210.185-238.933,305.886C90.982,380.858,17.067,254.274,17.067,170.673c0-6.818,0.563-13.764,1.681-20.77
				c4.719,2.398,9.984,3.703,15.386,3.703c18.825,0,34.133-15.309,34.133-34.133c0-0.282,0-0.572-0.009-0.853
				c16.7-3.396,29.892-16.589,33.28-33.289c19.575,0.58,34.995-15.027,34.995-34.125c0-5.402-1.306-10.658-3.703-15.377
				c33.417-5.342,65.672,1.877,93.065,19.004c3.994,2.5,9.259,1.28,11.75-2.714c2.5-4.002,1.289-9.267-2.705-11.767
				c-35.004-21.871-77.193-29.261-119.868-18.219c-3.209,0.836-5.641,3.448-6.246,6.707c-0.606,3.26,0.734,6.571,3.43,8.499
				c4.514,3.226,7.211,8.414,7.211,13.867c0,9.412-7.663,17.067-17.067,17.067c-1.843,0-3.738-0.358-5.803-1.109
				c-2.705-0.981-5.717-0.529-8.013,1.195c-2.304,1.724-3.575,4.489-3.405,7.356c0.017,0.23,0.119,0.862,0.154,1.092
				c0,14.123-11.486,25.6-25.293,25.6c-0.265-0.034-1.263-0.137-1.545-0.154c-2.756-0.077-5.564,1.169-7.245,3.465
				c-1.698,2.295-2.125,5.282-1.161,7.962c0.742,2.065,1.109,3.959,1.109,5.794c0,9.412-7.663,17.067-17.067,17.067
				c-5.547,0-10.598-2.628-13.875-7.211c-1.929-2.697-5.205-4.011-8.499-3.43c-3.26,0.606-5.879,3.038-6.699,6.255
				C1.698,145.107,0,158.069,0,170.673c0,89.233,77.85,223.761,251.767,323.14c1.306,0.751,2.773,1.126,4.233,1.126
				c1.459,0,2.927-0.375,4.233-1.126C434.15,394.434,512,259.906,512,170.673C512,85.98,443.093,17.073,358.4,17.073z"/>
		</g>
	</g>
</g>
</svg>