<!DOCTYPE svg PUBLIC "-//W3C//DTD SVG 1.1//EN" "http://www.w3.org/Graphics/SVG/1.1/DTD/svg11.dtd">
<!-- Uploaded to: SVG Repo, www.svgrepo.com, Transformed by: SVG Repo Mixer Tools -->
<svg fill="#000000" height="158px" width="158px" version="1.1" id="Layer_1" xmlns="http://www.w3.org/2000/svg" xmlns:xlink="http://www.w3.org/1999/xlink" viewBox="0 0 480 480" xml:space="preserve" stroke="#000000" stroke-width="0.0048000000000000004">
<g id="SVGRepo_bgCarrier" stroke-width="0"/>
<g id="SVGRepo_tracerCarrier" stroke-linecap="round" stroke-linejoin="round"/>
<g id="SVGRepo_iconCarrier"> <g id="XMLID_28_"> <g> <path d="M346.154,52.5c-1.013,0-2.025,0.012-3.032,0.034c-57.867,1.293-106.209,46.105-112.447,104.238 c-1.117,10.407,3.111,20.459,11.31,26.89l36.291,28.471c5.201,4.08,3.825,9.552,3.279,11.132c-0.546,1.58-2.841,6.735-9.452,6.735 h-58.874c-12.621,0-23.644,7.635-28.083,19.449c-4.439,11.814-1.17,24.818,8.328,33.129l19.451,17.02 C223.776,309.092,230,322.807,230,337.226V380c0,5.523,4.477,10,10,10c5.522,0,10-4.477,10-10v-42.774 c0-20.187-8.713-39.388-23.905-52.68l-19.451-17.02c-4.836-4.231-3.347-9.522-2.776-11.043c0.571-1.521,2.935-6.483,9.361-6.483 h58.874c12.985,0,24.116-7.931,28.356-20.205c4.239-12.273,0.377-25.383-9.839-33.398l-36.292-28.471 c-2.736-2.146-4.144-5.518-3.768-9.02c5.169-48.174,45.155-85.308,93.009-86.377c0.859-0.02,1.721-0.029,2.585-0.029 C408.929,72.5,460,123.752,460,186.75c0,30.872-13.555,59.91-37.19,79.669L264.87,398.465c-6.969,5.826-15.802,9.035-24.87,9.035 c-9.069,0-17.901-3.209-24.87-9.035L57.189,266.419C33.555,246.66,20,217.622,20,186.75C20,123.752,71.071,72.5,133.846,72.5 c26.294,0,50.986,8.739,71.408,25.272c4.292,3.474,10.589,2.812,14.064-1.48c3.476-4.292,2.813-10.589-1.479-14.064 C194.16,63.057,164.331,52.5,133.846,52.5C60.043,52.5,0,112.724,0,186.75c0,36.812,16.169,71.443,44.361,95.013l157.941,132.046 C212.862,422.638,226.25,427.5,240,427.5s27.138-4.862,37.699-13.691l157.94-132.046C463.831,258.193,480,223.562,480,186.75 C480,112.724,419.957,52.5,346.154,52.5z"/> </g> </g> </g>
</svg>